PathFileType	4	(X/Y/Z)	 s09c0201.trc
DataRate	CameraRate	NumFrames	NumMarkers	Units	OrigDataRate	OrigDataStartFrame	OrigNumFrames
200	200	4	50	mm	200	251	2000
Frame#	Time	racr			lacr			c7			jug			rlel			rdr			llel			ldr			s2			lic			ric			lasi			rasi			rpsi			lpsi			rgt			lgt			rth1			rth2			rth3			rth4			rlfc			rmfc			rsh1			rsh2			rsh3			rsh4			rlmal			rmmal			rcal			rtoe			rmt5			lth1			lth2			lth4			lth3			llfc			lmfc			llmal			lmmal			lcal			lmt5			lsh1			lsh2			lsh3			lsh4			ltoe			SBIKE			LBIKE			RBIKE			
		X1	Y1	Z1	X2	Y2	Z2	X3	Y3	Z3	X4	Y4	Z4	X5	Y5	Z5	X6	Y6	Z6	X7	Y7	Z7	X8	Y8	Z8	X9	Y9	Z9	X10	Y10	Z10	X11	Y11	Z11	X12	Y12	Z12	X13	Y13	Z13	X14	Y14	Z14	X15	Y15	Z15	X16	Y16	Z16	X17	Y17	Z17	X18	Y18	Z18	X19	Y19	Z19	X20	Y20	Z20	X21	Y21	Z21	X22	Y22	Z22	X23	Y23	Z23	X24	Y24	Z24	X25	Y25	Z25	X26	Y26	Z26	X27	Y27	Z27	X28	Y28	Z28	X29	Y29	Z29	X30	Y30	Z30	X31	Y31	Z31	X32	Y32	Z32	X33	Y33	Z33	X34	Y34	Z34	X35	Y35	Z35	X36	Y36	Z36	X37	Y37	Z37	X38	Y38	Z38	X39	Y39	Z39	X40	Y40	Z40	X41	Y41	Z41	X42	Y42	Z42	X43	Y43	Z43	X44	Y44	Z44	X45	Y45	Z45	X46	Y46	Z46	X47	Y47	Z47	X48	Y48	Z48	X49	Y49	Z49	X50	Y50	Z50	
251	1.2550	467.272728	1331.426644	-84.736033	478.525247	1305.826274	-421.687560	434.777119	1359.419262	-240.040405	439.432489	1225.090466	-249.995836	504.349987	1087.227366	3.753106	692.521570	910.044197	-38.613746	452.802513	1036.039035	-510.516493	670.884319	908.593590	-454.519822	-3.213084	1109.809714	-233.546275	127.760241	1126.761376	-383.140461	145.806882	1121.833092	-90.650838	178.324933	1075.203811	-364.062260	194.293027	1070.022570	-113.301583	27.381734	1141.971048	-174.549295	16.865977	1150.991004	-284.737325	127.110528	969.947477	-48.674160	103.231663	1009.245655	-433.020364	210.417193	855.819513	-52.226638	276.903915	799.449917	-59.306059	301.712694	714.209422	-65.782456	302.980498	815.502664	-79.777282	334.278009	615.276155	-95.395279	316.802759	601.013063	-192.507329	255.936070	545.178880	-65.715842	221.497619	463.494344	-79.393673	150.755538	411.012116	-79.986761	242.172065	451.318010	-111.752180	86.723170	334.584878	-81.281971	94.784614	343.303898	-160.143401	-1.115140	329.872424	-120.990810	238.393979	219.035407	-125.273617	156.653830	235.554878	-60.184280	227.599132	952.394390	-432.774463	312.788392	951.712932	-429.009577	323.879043	984.892946	-413.437753	390.533900	905.445683	-431.652308	479.552217	847.919539	-414.374262	500.116873	838.858045	-314.787439	355.202175	508.323399	-408.604984	374.013820	515.289737	-338.288095	279.558221	483.215472	-370.554907	437.858811	413.410492	-433.014500	450.299127	752.673532	-432.971439	442.133803	666.742529	-420.811910	390.356956	594.576212	-416.971464	466.770878	661.621029	-390.586081	530.180974	414.587157	-363.858255	-65.483856	853.291902	-238.808999	20.685284	84.881405	-442.059444	21.147653	84.032706	-43.790776	
252	1.2600	467.270348	1331.452823	-84.674352	478.497949	1305.843214	-421.678025	434.755215	1359.436640	-240.021088	439.447947	1225.108234	-249.964217	504.340778	1087.229775	3.771529	692.533457	910.052320	-38.605400	452.808216	1036.053737	-510.460496	670.885351	908.600368	-454.503187	-3.184863	1109.798705	-233.492739	127.777654	1126.758459	-383.115147	145.814374	1121.809192	-90.623291	178.347684	1075.222706	-364.043286	194.296914	1069.993747	-113.265857	27.380804	1141.951061	-174.529136	16.898867	1150.984972	-284.705597	127.107144	969.920952	-48.665715	103.244365	1009.281343	-433.022235	210.420666	855.800849	-52.210855	276.901817	799.439605	-59.309250	301.718721	714.185019	-65.794780	302.981460	815.488864	-79.755082	334.302073	615.255782	-95.411682	316.785885	601.021250	-192.517672	255.937420	545.160771	-65.716652	221.510152	463.480715	-79.404979	150.770003	410.992981	-79.993224	242.172001	451.337929	-111.788800	86.725860	334.552420	-81.279645	94.838135	343.274976	-160.140630	-1.081561	329.850952	-120.978108	238.402725	218.994981	-125.280444	156.668935	235.548978	-60.169701	227.619862	952.411901	-432.763988	312.809450	951.740705	-429.000270	323.886404	984.921550	-413.419662	390.548358	905.492815	-431.666315	479.576760	847.944215	-414.369818	500.149613	838.897046	-314.790048	355.214184	508.364534	-408.614139	374.014916	515.337308	-338.254907	279.556430	483.268016	-370.559122	437.860554	413.434718	-433.021372	450.318913	752.700772	-432.980511	442.150724	666.801567	-420.837940	390.362923	594.653234	-416.963965	466.798417	661.639313	-390.558682	530.180562	414.589327	-363.877570	-65.481255	853.294630	-238.812924	20.677910	84.886663	-442.047752	21.129952	84.049943	-43.802310	
253	1.2650	467.259969	1331.490612	-84.612905	478.496273	1305.859561	-421.647474	434.736112	1359.456125	-239.984456	439.480011	1225.128124	-249.908766	504.361695	1087.235172	3.781409	692.327494	910.514439	-38.406915	452.813264	1036.070250	-510.389145	670.871096	908.596047	-454.470401	-3.191719	1109.788176	-233.480910	127.793681	1126.782450	-383.087971	145.779316	1121.656106	-90.312431	178.344675	1075.236180	-364.026869	194.297146	1069.971179	-113.243140	27.378959	1141.934613	-174.489797	16.902355	1150.976878	-284.679598	127.098508	969.903650	-48.656444	103.248526	1009.309166	-433.013711	210.406345	855.787262	-52.225075	276.897739	799.422635	-59.329391	301.727228	714.181484	-65.807263	302.972614	815.477420	-79.775707	334.288560	615.255408	-95.440581	316.778188	601.017226	-192.544843	255.981552	545.160959	-65.738277	221.540441	463.477154	-79.412058	150.801579	410.971627	-79.991767	242.192263	451.323068	-111.804798	86.776205	334.544200	-81.264579	94.824258	343.281167	-160.131199	-1.059465	329.842619	-120.960407	238.433167	218.967371	-125.264052	156.682926	235.515293	-60.162177	227.626844	952.465414	-432.779040	312.821287	951.778003	-429.004751	323.886080	984.961721	-413.423213	390.561389	905.518342	-431.659796	479.588641	847.969896	-414.369529	500.170753	838.930141	-314.784785	355.223671	508.391141	-408.611159	374.008930	515.356992	-338.285202	279.562335	483.334329	-370.550294	437.846827	413.461475	-433.035352	450.327298	752.726929	-432.978050	442.166138	666.841130	-420.844327	390.373346	594.676307	-416.968245	466.802518	661.689583	-390.586464	530.176211	414.598822	-363.865900	-65.493361	853.277461	-238.820678	20.688207	84.888908	-442.060338	21.137233	84.050399	-43.797515	
254	1.2700	467.280773	1331.474035	-84.591237	478.468321	1305.877697	-421.613680	434.747179	1359.485636	-239.941888	439.475666	1225.156701	-249.860902	504.369579	1087.236668	3.794130	692.308253	910.522674	-38.416101	452.817586	1036.076512	-510.325881	670.885330	908.595470	-454.469436	-3.215288	1109.781525	-233.452537	127.811302	1126.794823	-383.063667	145.781540	1121.650602	-90.261189	178.355145	1075.243683	-364.001524	194.274802	1069.971065	-113.222893	27.347659	1141.937489	-174.444938	16.785914	1150.888277	-284.650239	127.099223	969.871040	-48.645403	103.262329	1009.345918	-432.989507	210.387224	855.768952	-52.216328	276.899696	799.414224	-59.340448	301.715023	714.180009	-65.826991	302.971844	815.478792	-79.774493	334.314959	615.258063	-95.451117	316.787786	601.018665	-192.567871	256.004477	545.154086	-65.761122	221.553137	463.453530	-79.425438	150.825695	410.947629	-79.984733	242.210228	451.329039	-111.827497	86.798485	334.519436	-81.295785	94.866659	343.254028	-160.144833	-1.025478	329.829830	-120.966663	238.462467	218.948699	-125.274030	156.707643	235.499126	-60.173123	227.628416	952.485653	-432.779683	312.827948	951.803814	-428.999641	323.911985	985.000358	-413.425214	390.574753	905.557653	-431.670551	479.585561	848.026378	-414.380600	500.205896	838.961219	-314.787370	355.228024	508.423626	-408.611198	374.032799	515.387236	-338.273699	279.562231	483.381909	-370.554283	437.838308	413.488718	-433.025956	450.354542	752.767470	-432.988035	442.180558	666.870555	-420.844736	390.389646	594.731572	-416.954859	466.813229	661.730467	-390.590535	530.173105	414.596262	-363.868524	-65.490752	853.292449	-238.821809	20.678526	84.896860	-442.048326	21.127610	84.045989	-43.791518	
